<?xml version="1.0" encoding="utf-8"?>
<!-- Generator: Adobe Illustrator 23.0.3, SVG Export Plug-In . SVG Version: 6.00 Build 0)  -->
<svg version="1.1" id="Ebene_1" xmlns="http://www.w3.org/2000/svg" xmlns:xlink="http://www.w3.org/1999/xlink" x="0px" y="0px"
	 viewBox="0 0 2968.4 3635.3" style="enable-background:new 0 0 2968.4 3635.3;" xml:space="preserve">
<style type="text/css">
	.st0{fill:#1D1D1B;}
</style>
<title>Raster_A</title>
<path class="st0" d="M1738.7,1510.3c0.8,0,1.5-0.7,1.5-1.5c0-0.8-0.7-1.5-1.5-1.5c-0.8,0-1.5,0.7-1.5,1.5
	C1737.2,1509.7,1737.9,1510.3,1738.7,1510.3z"/>
<path class="st0" d="M1738.7,1510.3c0.8,0,1.5-0.7,1.5-1.5c0-0.8-0.7-1.5-1.5-1.5c-0.8,0-1.5,0.7-1.5,1.5
	C1737.2,1509.7,1737.9,1510.3,1738.7,1510.3z"/>
<image style="overflow:visible;" width="2450" height="2450" xlink:href="../../../../../../../Desktop/BA_Praktisch/01 Entwurf/06 Ausstellung/01 Webseite/00 Fernando/Tests svg/Muster/Masken_GEO_87.png"  transform="matrix(2.4148 0 0 2.4148 -1473.9337 -1067.6759)">
</image>
</svg>
