<?xml version="1.0" encoding="utf-8"?>
<!-- Generator: Adobe Illustrator 23.0.3, SVG Export Plug-In . SVG Version: 6.00 Build 0)  -->
<svg version="1.1" id="Ebene_1" xmlns="http://www.w3.org/2000/svg" xmlns:xlink="http://www.w3.org/1999/xlink" x="0px" y="0px"
	 viewBox="0 0 1000 1224.7" style="enable-background:new 0 0 1000 1224.7;" xml:space="preserve">
<style type="text/css">
	.st0{display:none;}
	.st1{display:inline;}
	.st2{fill:#1D1D1B;}
</style>
<g class="st0">
	<g class="st1">
		<g>
			
				<image style="overflow:visible;enable-background:new    ;" width="4724" height="4724" xlink:href="../../../../../../../Desktop/BA_Praktisch/01 Entwurf/06 Ausstellung/01 Webseite/00 Fernando/Webseite/img/hidden/-400x400/202–02GEO–03DAZ–200.png"  transform="matrix(0.4174 0 0 0.4174 -485.8396 -358.6276)">
			</image>
		</g>
		<g>
			<title>Raster_A</title>
			<path class="st2" d="M754.5,305c0.8,0,1.5-0.7,1.5-1.5s-0.7-1.5-1.5-1.5s-1.5,0.7-1.5,1.5S753.7,305,754.5,305z"/>
			<path class="st2" d="M754.5,305c0.8,0,1.5-0.7,1.5-1.5s-0.7-1.5-1.5-1.5s-1.5,0.7-1.5,1.5S753.7,305,754.5,305z"/>
			
				<image style="overflow:visible;enable-background:new    ;" width="2450" height="2450" xlink:href="../../../../../../../Desktop/BA_Praktisch/01 Entwurf/06 Ausstellung/01 Webseite/00 Fernando/Webseite/img/hidden/-400x400/261–62ORG–12DAZ–400.png"  transform="matrix(0.7398 0 0 0.7398 -406.2809 -283.9308)">
			</image>
		</g>
	</g>
	<g class="st1">
		
			<image style="overflow:visible;enable-background:new    ;" width="2450" height="2450" xlink:href="../../../../../../../Desktop/BA_Praktisch/01 Entwurf/06 Ausstellung/01 Webseite/00 Fernando/Webseite/img/hidden/-400x400/383–90ORG–12PER–700.png"  transform="matrix(0.8365 0 0 0.8365 -524.6982 -437.8875)">
		</image>
	</g>
</g>
<image style="overflow:visible;" width="2450" height="2450" xlink:href="../../../../../../../Desktop/BA_Praktisch/01 Entwurf/06 Ausstellung/01 Webseite/00 Fernando/Webseite/img/recognized/157–61ORG.png"  transform="matrix(0.6171 0 0 0.6171 -295.8275 -204.9007)">
</image>
</svg>
