<svg id="Ebene_1" data-name="Ebene 1" xmlns="http://www.w3.org/2000/svg" viewBox="0 0 1000 1000"><title>Raster_A</title><rect x="366.38" y="597.37" width="33.49" height="33.49"/><rect x="366.38" y="664.35" width="33.49" height="33.49"/><rect x="366.38" y="731.32" width="33.49" height="33.49"/><rect x="366.38" y="798.3" width="33.49" height="33.49"/><rect x="366.38" y="865.28" width="33.49" height="33.49"/><rect x="433.36" y="597.37" width="33.49" height="33.49"/><rect x="433.36" y="664.35" width="33.49" height="33.49"/><rect x="433.36" y="731.32" width="33.49" height="33.49"/><rect x="433.36" y="798.3" width="33.49" height="33.49"/><rect x="433.36" y="865.28" width="33.49" height="33.49"/><rect x="500.34" y="597.37" width="33.49" height="33.49"/><rect x="651.03" y="597.37" width="33.49" height="33.49"/><rect x="718.01" y="597.37" width="33.49" height="33.49"/><rect x="500.34" y="664.35" width="33.49" height="33.49"/><rect x="651.03" y="664.35" width="33.49" height="33.49"/><rect x="718.01" y="664.35" width="33.49" height="33.49"/><rect x="500.34" y="731.32" width="33.49" height="33.49"/><rect x="651.03" y="731.32" width="33.49" height="33.49"/><rect x="718.01" y="731.32" width="33.49" height="33.49"/><rect x="500.34" y="798.3" width="33.49" height="33.49"/><rect x="651.03" y="798.3" width="33.49" height="33.49"/><rect x="718.01" y="798.3" width="33.49" height="33.49"/><rect x="500.34" y="865.28" width="33.49" height="33.49"/><rect x="651.03" y="865.28" width="33.49" height="33.49"/><rect x="718.01" y="865.28" width="33.49" height="33.49"/><rect x="299.4" y="597.37" width="33.49" height="33.49"/><rect x="299.4" y="664.35" width="33.49" height="33.49"/><rect x="299.4" y="731.32" width="33.49" height="33.49"/><rect x="299.4" y="798.3" width="33.49" height="33.49"/><rect x="299.4" y="865.28" width="33.49" height="33.49"/><rect x="232.42" y="597.37" width="33.49" height="33.49"/><rect x="232.42" y="664.35" width="33.49" height="33.49"/><rect x="232.42" y="731.32" width="33.49" height="33.49"/><rect x="232.42" y="798.3" width="33.49" height="33.49"/><rect x="232.42" y="865.28" width="33.49" height="33.49"/><rect x="366.38" y="463.41" width="33.49" height="33.49"/><rect x="433.36" y="463.41" width="33.49" height="33.49"/><rect x="500.34" y="463.41" width="33.49" height="33.49"/><rect x="651.03" y="463.41" width="33.49" height="33.49"/><rect x="718.01" y="463.41" width="33.49" height="33.49"/><rect x="299.4" y="463.41" width="33.49" height="33.49"/><rect x="232.42" y="463.41" width="33.49" height="33.49"/><rect x="366.38" y="530.39" width="33.49" height="33.49"/><rect x="433.36" y="530.39" width="33.49" height="33.49"/><rect x="500.34" y="530.39" width="33.49" height="33.49"/><rect x="651.03" y="530.39" width="33.49" height="33.49"/><rect x="718.01" y="530.39" width="33.49" height="33.49"/><rect x="299.4" y="530.39" width="33.49" height="33.49"/><rect x="232.42" y="530.39" width="33.49" height="33.49"/></svg>