<svg id="Ebene_1" data-name="Ebene 1" xmlns="http://www.w3.org/2000/svg" viewBox="0 0 1000 1000"><title>Raster_A</title><rect x="483.46" y="464.7" width="33.09" height="33.09"/><rect x="549.63" y="464.7" width="33.09" height="33.09"/><rect x="417.28" y="464.7" width="33.09" height="33.09"/><rect x="483.46" y="332.35" width="33.09" height="33.09"/><rect x="549.63" y="332.35" width="33.09" height="33.09"/><rect x="417.28" y="332.35" width="33.09" height="33.09"/><rect x="483.46" y="266.17" width="33.09" height="33.09"/><rect x="549.63" y="266.17" width="33.09" height="33.09"/><rect x="417.28" y="266.17" width="33.09" height="33.09"/><rect x="483.46" y="199.99" width="33.09" height="33.09"/><rect x="549.63" y="199.99" width="33.09" height="33.09"/><rect x="417.28" y="199.99" width="33.09" height="33.09"/><rect x="483.46" y="133.82" width="33.09" height="33.09"/><rect x="549.63" y="133.82" width="33.09" height="33.09"/><rect x="417.28" y="133.82" width="33.09" height="33.09"/><rect x="483.46" y="398.52" width="33.09" height="33.09"/><rect x="549.63" y="398.52" width="33.09" height="33.09"/><rect x="417.28" y="398.52" width="33.09" height="33.09"/></svg>