<?xml version="1.0" encoding="utf-8"?>
<!-- Generator: Adobe Illustrator 23.0.3, SVG Export Plug-In . SVG Version: 6.00 Build 0)  -->
<svg version="1.1" id="Ebene_1" xmlns="http://www.w3.org/2000/svg" xmlns:xlink="http://www.w3.org/1999/xlink" x="0px" y="0px"
	 viewBox="0 0 1000 1224.7" style="enable-background:new 0 0 1000 1224.7;" xml:space="preserve">
<style type="text/css">
	.st0{display:none;}
	.st1{display:inline;}
	.st2{fill:#1D1D1B;}
	.st3{clip-path:url(#SVGID_2_);}
</style>
<g class="st0">
	<g class="st1">
		<g>
			
				<image style="overflow:visible;enable-background:new    ;" width="4724" height="4724" xlink:href="../../../../../../../Desktop/BA_Praktisch/01 Entwurf/06 Ausstellung/01 Webseite/00 Fernando/Webseite/img/hidden/-400x400/202–02GEO–03DAZ–200.png"  transform="matrix(0.4174 0 0 0.4174 -485.8396 -358.6276)">
			</image>
		</g>
		<g>
			<title>Raster_A</title>
			<path class="st2" d="M754.5,305c0.8,0,1.5-0.7,1.5-1.5s-0.7-1.5-1.5-1.5s-1.5,0.7-1.5,1.5S753.7,305,754.5,305z"/>
			<path class="st2" d="M754.5,305c0.8,0,1.5-0.7,1.5-1.5s-0.7-1.5-1.5-1.5s-1.5,0.7-1.5,1.5S753.7,305,754.5,305z"/>
			
				<image style="overflow:visible;enable-background:new    ;" width="2450" height="2450" xlink:href="../../../../../../../Desktop/BA_Praktisch/01 Entwurf/06 Ausstellung/01 Webseite/00 Fernando/Webseite/img/hidden/-400x400/261–62ORG–12DAZ–400.png"  transform="matrix(0.7398 0 0 0.7398 -406.2809 -283.9308)">
			</image>
		</g>
	</g>
	<g class="st1">
		
			<image style="overflow:visible;enable-background:new    ;" width="2450" height="2450" xlink:href="../../../../../../../Desktop/BA_Praktisch/01 Entwurf/06 Ausstellung/01 Webseite/00 Fernando/Webseite/img/hidden/-400x400/383–90ORG–12PER–700.png"  transform="matrix(0.8365 0 0 0.8365 -524.6982 -437.8875)">
		</image>
	</g>
</g>
<g>
	<defs>
		<path id="SVGID_1_" d="M80.9,183.8c166.1,0,302,48.4,419.1,42.1c117.1-6.3,331.6-105.1,428.4-42.1s204,233.4,82,279.7
			S644.5,453,648.7,514s46.3,117.8,46.3,159.8c0,42.1-21,161.9-65.2,170.3c-44.2,8.4-191.4,56.8-222.9,29.4
			C375.3,846.3,280.6,762.2,280.6,718c0-44.2,82-98.8,54.7-143s-82-71.5-149.3-77.8c-67.3-6.3-176.6-8.4-176.6-61
			S7.3,244.8,34.6,221.7S80.9,183.8,80.9,183.8z"/>
	</defs>
	<clipPath id="SVGID_2_">
		<use xlink:href="#SVGID_1_"  style="overflow:visible;"/>
	</clipPath>
	<g class="st3">
		
			<image style="overflow:visible;enable-background:new    ;" width="2450" height="2450" xlink:href="../../../../../../../Desktop/BA_Praktisch/01 Entwurf/06 Ausstellung/01 Webseite/00 Fernando/Webseite/img/hidden/-400x400/435–08ROG–01ATT.png"  transform="matrix(0.8889 0 0 0.8889 -588.8977 -476.5525)">
		</image>
	</g>
</g>
</svg>
